<?xml version="1.0" encoding="UTF-8"?>
<svg xmlns="http://www.w3.org/2000/svg" width="64" height="64" viewBox="0 0 64 64">
  <!-- Background -->
  <rect width="64" height="64" fill="#2c3e50" rx="4"/>

  <!-- FreeCAD gear (left) -->
  <g transform="translate(6, 10)">
    <circle cx="12" cy="12" r="9" fill="#e74c3c"/>
    <rect x="9" y="0" width="6" height="3" fill="#e74c3c"/>
    <rect x="9" y="21" width="6" height="3" fill="#e74c3c"/>
    <rect x="0" y="9" width="3" height="6" fill="#e74c3c"/>
    <rect x="21" y="9" width="3" height="6" fill="#e74c3c"/>
    <circle cx="12" cy="12" r="4" fill="#2c3e50"/>
  </g>

  <!-- Bridge (center) -->
  <line x1="28" y1="22" x2="36" y2="22" stroke="#27ae60" stroke-width="3"/>
  <rect x="28" y="19" width="2" height="6" fill="#27ae60"/>
  <rect x="34" y="19" width="2" height="6" fill="#27ae60"/>

  <!-- Robot head (right) -->
  <g transform="translate(40, 10)">
    <!-- Head -->
    <rect x="2" y="6" width="14" height="12" fill="#d4a574" rx="2"/>
    <!-- Antenna -->
    <line x1="9" y1="6" x2="9" y2="2" stroke="#d4a574" stroke-width="2"/>
    <circle cx="9" cy="1" r="2" fill="#d4a574"/>
    <!-- Eyes -->
    <circle cx="6" cy="11" r="2" fill="#2c3e50"/>
    <circle cx="12" cy="11" r="2" fill="#2c3e50"/>
    <!-- Mouth -->
    <rect x="5" y="15" width="8" height="1" fill="#2c3e50"/>
  </g>

  <!-- Start indicator (green play button) -->
  <g transform="translate(20, 38)">
    <circle cx="12" cy="10" r="10" fill="#27ae60"/>
    <polygon points="9,5 9,15 17,10" fill="white"/>
  </g>

  <!-- Label -->
  <text x="32" y="60" font-family="Arial, sans-serif" font-size="7" font-weight="bold" fill="#ecf0f1" text-anchor="middle">START</text>
</svg>
