<?xml version="1.0" encoding="UTF-8"?>
<svg xmlns="http://www.w3.org/2000/svg" width="64" height="64" viewBox="0 0 64 64">
  <!-- Background -->
  <rect width="64" height="64" fill="#2c3e50" rx="4"/>

  <!-- Gear (settings icon) -->
  <g transform="translate(16, 12)">
    <!-- Outer gear body -->
    <circle cx="16" cy="16" r="12" fill="#95a5a6"/>
    <!-- Gear teeth -->
    <rect x="13" y="0" width="6" height="4" fill="#95a5a6"/>
    <rect x="13" y="28" width="6" height="4" fill="#95a5a6"/>
    <rect x="0" y="13" width="4" height="6" fill="#95a5a6"/>
    <rect x="28" y="13" width="4" height="6" fill="#95a5a6"/>
    <!-- Diagonal teeth -->
    <rect x="4" y="4" width="5" height="3" fill="#95a5a6" transform="rotate(45, 6.5, 5.5)"/>
    <rect x="23" y="4" width="5" height="3" fill="#95a5a6" transform="rotate(-45, 25.5, 5.5)"/>
    <rect x="4" y="25" width="5" height="3" fill="#95a5a6" transform="rotate(-45, 6.5, 26.5)"/>
    <rect x="23" y="25" width="5" height="3" fill="#95a5a6" transform="rotate(45, 25.5, 26.5)"/>
    <!-- Inner circle -->
    <circle cx="16" cy="16" r="6" fill="#2c3e50"/>
  </g>

  <!-- Small MCP indicator in corner -->
  <g transform="translate(40, 40)">
    <circle cx="10" cy="10" r="10" fill="#3498db"/>
    <text x="10" y="14" font-family="Arial, sans-serif" font-size="10" font-weight="bold" fill="white" text-anchor="middle">M</text>
  </g>

  <!-- Label -->
  <text x="32" y="58" font-family="Arial, sans-serif" font-size="6" font-weight="bold" fill="#ecf0f1" text-anchor="middle">PREFS</text>
</svg>
